<?xml version="1.0" standalone="no"?>
<!DOCTYPE svg PUBLIC "-//W3C//DTD SVG 20010904//EN"
 "http://www.w3.org/TR/2001/REC-SVG-20010904/DTD/svg10.dtd">
<svg version="1.0" xmlns="http://www.w3.org/2000/svg"
 width="860.000000pt" height="860.000000pt" viewBox="0 0 860.000000 860.000000"
 preserveAspectRatio="xMidYMid meet">
<metadata>
Created by potrace 1.14, written by Peter Selinger 2001-2017
</metadata>
<g transform="translate(0.000000,860.000000) scale(0.100000,-0.100000)"
fill="#000000" stroke="none">
<path d="M4962 8098 l3 -493 165 -5 165 -5 3 -295 c1 -162 0 -310 -3 -327 l-6
-33 -164 0 -165 0 0 -165 0 -165 -162 -2 -163 -3 3 -50 c2 -27 0 -101 -3 -162
l-7 -113 -164 0 -164 0 0 -165 0 -165 -165 0 -165 0 0 -165 0 -165 -165 0
-165 0 0 -165 0 -165 -165 0 -165 0 0 -165 0 -165 -162 -2 -163 -3 -3 -162 -2
-163 -165 0 -165 0 0 -165 0 -165 -165 0 -165 0 0 -165 0 -165 -165 0 -165 0
0 -165 0 -165 -165 0 -165 0 0 -165 0 -165 -165 0 -165 0 0 -165 0 -165 -165
0 -165 0 0 -165 0 -165 -165 0 -165 0 0 -165 0 -165 -165 0 -165 0 0 -165 0
-165 -165 0 -165 0 0 -495 0 -495 162 -2 163 -3 3 -162 2 -163 165 0 165 0 0
-165 0 -165 330 0 330 0 2 -168 3 -167 327 -2 328 -3 2 168 3 167 162 3 163 2
2 163 3 162 165 5 165 5 5 160 5 160 163 3 c121 2 162 6 161 15 -1 6 -1 81 0
164 l1 153 163 2 162 3 2 160 2 160 163 5 163 5 3 162 2 163 160 0 160 0 2
163 3 162 168 3 167 2 0 165 0 165 160 0 160 0 2 163 3 162 168 3 167 2 0 165
0 165 165 0 165 0 0 165 0 165 325 0 325 0 0 -165 0 -165 663 -2 662 -3 0
-160 0 -160 -330 -5 -330 -5 -3 -162 -2 -163 -325 0 -325 0 -5 -23 c-3 -12 -4
-159 -3 -327 l3 -305 163 -3 162 -2 0 -165 0 -165 335 0 335 0 0 165 0 165
165 0 165 0 0 495 0 495 159 0 c156 0 159 0 165 -22 3 -13 6 -236 6 -495 l0
-473 163 -2 162 -3 3 -163 2 -162 330 0 330 0 0 495 0 495 -165 0 -165 0 0
165 0 165 -330 0 -330 0 0 165 0 165 165 0 165 0 0 165 0 165 165 0 165 0 0
330 0 330 -165 0 -165 0 0 165 0 165 -660 0 -660 0 0 165 0 165 165 0 165 0 0
165 0 165 165 0 165 0 0 165 0 165 165 0 165 0 0 330 0 330 -165 0 -165 0 0
165 0 165 -165 0 -165 0 0 165 0 165 -327 2 -328 3 -3 163 -2 162 -330 0 -330
0 0 165 0 165 163 2 162 3 3 328 2 327 -165 0 -165 0 -1 158 c-1 86 -1 160 0
165 0 4 -150 7 -334 7 l-335 0 2 -492z m1315 -1170 c8 -15 13 -222 6 -285 l-5
-43 -322 -2 -321 -3 0 -162 0 -163 -162 0 -163 0 0 -165 0 -165 -165 0 -165 0
0 -165 0 -165 -167 -2 -168 -3 -2 -145 c-1 -80 -2 -153 -2 -162 -1 -16 -16
-18 -161 -18 l-160 0 0 -165 0 -165 -167 -2 -168 -3 -3 -162 -2 -163 -160 0
-160 0 -2 -162 -3 -163 -162 -3 -163 -2 0 -165 0 -165 -164 0 -164 0 -8 -67
c-3 -37 -4 -111 -1 -165 l5 -98 -164 0 -164 0 0 -165 0 -165 -167 -2 -168 -3
-3 -162 -2 -163 -163 -2 -162 -3 -3 -162 -2 -163 -160 0 -160 0 0 -165 0 -165
-167 -2 -168 -3 -3 -163 -2 -162 -160 0 -160 0 -2 -163 -3 -162 -167 -3 -168
-2 0 -325 0 -325 -165 0 -165 0 0 495 0 495 160 0 160 0 0 160 c0 189 -22 169
190 173 l145 2 0 152 c1 84 4 156 9 160 4 4 78 10 164 13 l157 5 3 162 2 163
163 2 162 3 3 157 3 158 27 1 c15 1 88 4 162 8 l135 6 5 160 5 160 147 1 c81
1 155 4 163 8 14 5 16 26 13 155 -2 82 0 153 4 157 4 4 74 9 155 10 82 2 154
4 161 4 9 0 12 40 12 165 l0 165 165 0 165 0 0 165 0 165 165 0 165 0 0 159 0
159 77 7 c42 4 113 5 159 2 67 -4 84 -2 88 10 3 8 6 82 6 164 0 176 -20 158
185 162 l140 2 5 160 5 160 160 5 160 5 5 159 5 158 152 2 c84 1 157 6 163 12
5 5 11 79 12 164 l3 155 160 5 160 5 5 160 5 160 163 3 c119 2 162 6 163 15 0
6 0 76 -1 154 -1 79 2 147 5 153 10 16 962 14 972 -2z m1647 -2650 c3 -13 6
-153 6 -311 0 -237 -3 -291 -14 -303 -11 -11 -46 -14 -150 -14 -75 0 -137 1
-138 3 -1 1 -4 76 -7 167 l-6 165 -155 0 -155 0 0 140 c0 77 -4 146 -8 152 -6
10 57 13 295 16 167 1 308 3 314 5 7 1 14 -8 18 -20z"/>
</g>
</svg>
